<svg xmlns="http://www.w3.org/2000/svg" viewBox="0 0 1200 820" role="img" aria-labelledby="title desc">
  <title id="title">Gaussian research notebook map</title>
  <desc id="desc">A notebook-style map showing how expert advice, simplification, benchmarking, and scoping shaped the Gaussian project.</desc>
  <rect width="1200" height="820" fill="#efe6d7"/>
  <rect x="54" y="46" width="1092" height="728" rx="34" fill="#fffaf1" stroke="#d1bea4" stroke-width="3"/>

  <g opacity="0.22" stroke="#d9ccb8" stroke-width="1">
    <path d="M96 190 H1104"/>
    <path d="M96 238 H1104"/>
    <path d="M96 286 H1104"/>
    <path d="M96 334 H1104"/>
    <path d="M96 382 H1104"/>
    <path d="M96 430 H1104"/>
    <path d="M96 478 H1104"/>
    <path d="M96 526 H1104"/>
    <path d="M96 574 H1104"/>
    <path d="M96 622 H1104"/>
    <path d="M96 670 H1104"/>
  </g>

  <text x="92" y="106" font-family="'IBM Plex Mono', monospace" font-size="18" fill="#7e5a36" letter-spacing="3">GAUSSIAN NOTEBOOK</text>
  <text x="92" y="154" font-family="'Fraunces', Georgia, serif" font-size="40" fill="#18202a">How the claim became easier to defend</text>

  <g font-family="'Public Sans', Arial, sans-serif">
    <rect x="102" y="226" width="430" height="184" rx="24" fill="#fff7c9" stroke="#d7c477" stroke-width="2"/>
    <text x="136" y="270" font-size="17" fill="#7e5a36" letter-spacing="2">1. BROAD START</text>
    <text x="136" y="314" font-size="30" font-weight="700" fill="#19202a">Too much could hide</text>
    <text x="136" y="350" font-size="30" font-weight="700" fill="#19202a">inside the equations</text>
    <text x="136" y="382" font-size="18" fill="#475362">The first frame needed a clearer boundary.</text>

    <rect x="668" y="226" width="430" height="184" rx="24" fill="#dceee4" stroke="#9bbca8" stroke-width="2"/>
    <text x="702" y="270" font-size="17" fill="#255d67" letter-spacing="2">2. EXPERT ADVICE</text>
    <text x="702" y="314" font-size="30" font-weight="700" fill="#19202a">Narrow the question</text>
    <text x="702" y="350" font-size="30" font-weight="700" fill="#19202a">before trusting it</text>
    <text x="702" y="382" font-size="18" fill="#475362">A smaller claim became more inspectable.</text>

    <rect x="102" y="500" width="430" height="184" rx="24" fill="#e2e8ff" stroke="#aab8dd" stroke-width="2"/>
    <text x="136" y="544" font-size="17" fill="#2d4da8" letter-spacing="2">3. BENCHMARK CHECK</text>
    <text x="136" y="588" font-size="30" font-weight="700" fill="#19202a">Compare simplified</text>
    <text x="136" y="624" font-size="30" font-weight="700" fill="#19202a">and exact behavior</text>
    <text x="136" y="656" font-size="18" fill="#475362">Plots showed where the shortcut drifted.</text>

    <rect x="668" y="500" width="430" height="184" rx="24" fill="#13212a"/>
    <text x="702" y="544" font-size="17" fill="#dce6e8" letter-spacing="2">4. SCOPED CLAIM</text>
    <text x="702" y="588" font-size="30" font-weight="700" fill="#f5efe4">Keep the result useful</text>
    <text x="702" y="624" font-size="30" font-weight="700" fill="#f5efe4">without overstating it</text>
    <text x="702" y="656" font-size="18" fill="#dce6e8">The limits stay visible beside the claim.</text>
  </g>

  <g stroke="#255d67" stroke-width="6" stroke-linecap="round" opacity="0.42">
    <path d="M548 318 H650"/>
    <path d="M883 430 V482"/>
    <path d="M650 592 H548"/>
    <path d="M317 430 V482"/>
  </g>
  <g fill="#255d67" opacity="0.62">
    <circle cx="600" cy="318" r="9"/>
    <circle cx="883" cy="456" r="9"/>
    <circle cx="600" cy="592" r="9"/>
    <circle cx="317" cy="456" r="9"/>
  </g>

  <g font-family="'IBM Plex Mono', monospace">
    <rect x="92" y="710" width="1016" height="42" rx="18" fill="#fff" stroke="#d1bea4" stroke-width="2"/>
    <text x="120" y="737" font-size="15" fill="#255d67" letter-spacing="2">READING GUIDE</text>
    <text x="304" y="737" font-size="15" fill="#475362">This is a research process sketch, not a polished proof diagram.</text>
  </g>
</svg>
