<svg xmlns="http://www.w3.org/2000/svg" viewBox="0 0 1200 820" role="img" aria-labelledby="title desc">
  <title id="title">Divergence loop for the position statement</title>
  <desc id="desc">A cyclical design loop showing how reading context, diverging, comparing routes, and converging with tests work together.</desc>
  <defs>
    <marker id="loop-arrow" viewBox="0 0 14 14" refX="11" refY="7" markerWidth="9" markerHeight="9" orient="auto">
      <path d="M2 1.5 L12 7 L2 12.5 Z" fill="#255d67"/>
    </marker>
  </defs>

  <rect width="1200" height="820" fill="#f7f0e4"/>
  <rect x="40" y="40" width="1120" height="740" rx="34" fill="#fffaf2" stroke="#d8c7b0" stroke-width="3"/>

  <text x="82" y="102" font-family="'IBM Plex Mono', monospace" font-size="18" fill="#255d67" letter-spacing="3">POSITION VISUAL</text>
  <text x="82" y="154" font-family="'Fraunces', Georgia, serif" font-size="42" fill="#18202a">Divergence as a design loop</text>
  <text x="82" y="196" font-family="'Public Sans', Arial, sans-serif" font-size="20" fill="#475362">I use divergence to reduce first-solution bias, open the opportunity constructively,</text>
  <text x="82" y="224" font-family="'Public Sans', Arial, sans-serif" font-size="20" fill="#475362">and then narrow with criteria and testing.</text>

  <g fill="none" stroke="#255d67" stroke-width="7" stroke-linecap="round" opacity="0.9">
    <path d="M394 296 C520 244, 680 244, 806 296" marker-end="url(#loop-arrow)"/>
    <path d="M872 364 C912 426, 912 506, 872 568" marker-end="url(#loop-arrow)"/>
    <path d="M806 624 C680 676, 520 676, 394 624" marker-end="url(#loop-arrow)"/>
    <path d="M328 568 C288 506, 288 426, 328 364" marker-end="url(#loop-arrow)"/>
  </g>

  <g font-family="'Public Sans', Arial, sans-serif">
    <rect x="420" y="304" width="360" height="228" rx="114" fill="#13212a"/>
    <text x="600" y="364" text-anchor="middle" font-size="18" fill="#d7e6e9" letter-spacing="2">WHY THE LOOP MATTERS</text>
    <text x="600" y="410" text-anchor="middle" font-size="32" font-weight="700" fill="#f5efe4">Bias removal</text>
    <text x="600" y="448" text-anchor="middle" font-size="19" fill="#d7e6e9">The loop is about reopening the problem,</text>
    <text x="600" y="476" text-anchor="middle" font-size="19" fill="#d7e6e9">comparing routes fairly,</text>
    <text x="600" y="504" text-anchor="middle" font-size="19" fill="#d7e6e9">and returning to reality checks.</text>
  </g>

  <g font-family="'Public Sans', Arial, sans-serif">
    <rect x="98" y="272" width="254" height="144" rx="26" fill="#ffffff" stroke="#d8c7b0" stroke-width="2"/>
    <text x="225" y="310" text-anchor="middle" font-size="16" fill="#7e5a36" letter-spacing="2">1 READ CONTEXT</text>
    <text x="225" y="352" text-anchor="middle" font-size="27" font-weight="700" fill="#19202a">Who is affected?</text>
    <text x="225" y="382" text-anchor="middle" font-size="17" fill="#475362">Map stakeholders, active</text>
    <text x="225" y="406" text-anchor="middle" font-size="17" fill="#475362">constraints, and unknowns.</text>

    <rect x="848" y="272" width="254" height="144" rx="26" fill="#eef6f8" stroke="#bed6dc" stroke-width="2"/>
    <text x="975" y="310" text-anchor="middle" font-size="16" fill="#255d67" letter-spacing="2">2 DIVERGE</text>
    <text x="975" y="352" text-anchor="middle" font-size="27" font-weight="700" fill="#19202a">Open branches</text>
    <text x="975" y="382" text-anchor="middle" font-size="17" fill="#475362">Name several directions</text>
    <text x="975" y="406" text-anchor="middle" font-size="17" fill="#475362">before one hardens.</text>

    <rect x="848" y="542" width="254" height="144" rx="26" fill="#f7f1df" stroke="#decfa1" stroke-width="2"/>
    <text x="975" y="580" text-anchor="middle" font-size="16" fill="#8b6d18" letter-spacing="2">3 COMPARE ROUTES</text>
    <text x="975" y="622" text-anchor="middle" font-size="27" font-weight="700" fill="#19202a">Set filters</text>
    <text x="975" y="652" text-anchor="middle" font-size="17" fill="#475362">Use shared criteria so</text>
    <text x="975" y="676" text-anchor="middle" font-size="17" fill="#475362">comparison becomes fair.</text>

    <rect x="98" y="542" width="254" height="144" rx="26" fill="#f7eef0" stroke="#dfc0c6" stroke-width="2"/>
    <text x="225" y="580" text-anchor="middle" font-size="16" fill="#aa5a32" letter-spacing="2">4 CONVERGE AND TEST</text>
    <text x="225" y="622" text-anchor="middle" font-size="27" font-weight="700" fill="#19202a">Narrow carefully</text>
    <text x="225" y="652" text-anchor="middle" font-size="17" fill="#475362">Choose the strongest route,</text>
    <text x="225" y="676" text-anchor="middle" font-size="17" fill="#475362">then check what it leaves out.</text>
  </g>
</svg>
