<svg xmlns="http://www.w3.org/2000/svg" viewBox="0 0 1200 820" role="img" aria-labelledby="title desc">
  <title id="title">Annotated Lotus Blossom for Praxis II</title>
  <desc id="desc">A boxed lotus blossom reconstruction showing how Praxis II tied concept branches to workflow criteria early enough to support better convergence.</desc>
  <rect width="1200" height="820" fill="#f7f0e4"/>
  <rect x="40" y="40" width="1120" height="740" rx="36" fill="#fffaf2" stroke="#d9c7ae" stroke-width="3"/>

  <text x="72" y="104" font-family="'Public Sans', Arial, sans-serif" font-size="18" fill="#7e5a36" letter-spacing="3">PRAXIS II RECONSTRUCTION</text>
  <text x="72" y="146" font-family="'Fraunces', Georgia, serif" font-size="36" fill="#18202a">Lotus blossom that stayed tied to the workflow</text>
  <text x="72" y="186" font-family="'Fraunces', Georgia, serif" font-size="36" fill="#18202a">instead of drifting</text>
  <text x="72" y="224" font-family="'Public Sans', Arial, sans-serif" font-size="21" fill="#475362">This layout keeps the blossom readable while showing how earlier filters held the</text>
  <text x="72" y="252" font-family="'Public Sans', Arial, sans-serif" font-size="21" fill="#475362">branches close to the check-in process.</text>

  <g font-family="'Public Sans', Arial, sans-serif">
    <rect x="120" y="274" width="520" height="420" rx="30" fill="#f3e8d7" stroke="#d8c7b0" stroke-width="2"/>
    <text x="150" y="316" font-size="18" fill="#255d67" letter-spacing="2">LOTUS BLOSSOM</text>

    <g>
      <rect x="150" y="346" width="140" height="92" rx="20" fill="#fff" stroke="#cbb394" stroke-width="2"/>
      <rect x="310" y="346" width="140" height="92" rx="20" fill="#fff" stroke="#cbb394" stroke-width="2"/>
      <rect x="470" y="346" width="140" height="92" rx="20" fill="#fff" stroke="#cbb394" stroke-width="2"/>

      <rect x="150" y="458" width="140" height="92" rx="20" fill="#fff" stroke="#cbb394" stroke-width="2"/>
      <rect x="310" y="458" width="140" height="92" rx="20" fill="#aa5a32" stroke="#aa5a32" stroke-width="2"/>
      <rect x="470" y="458" width="140" height="92" rx="20" fill="#fff" stroke="#cbb394" stroke-width="2"/>

      <rect x="150" y="570" width="140" height="92" rx="20" fill="#fff" stroke="#cbb394" stroke-width="2"/>
      <rect x="310" y="570" width="140" height="92" rx="20" fill="#fff" stroke="#cbb394" stroke-width="2"/>
      <rect x="470" y="570" width="140" height="92" rx="20" fill="#fff" stroke="#cbb394" stroke-width="2"/>
    </g>

    <g text-anchor="middle">
      <text x="220" y="384" font-size="17" font-weight="700" fill="#19202a">Parent error</text>
      <text x="220" y="407" font-size="17" fill="#475362">compliance</text>

      <text x="380" y="384" font-size="17" font-weight="700" fill="#19202a">Parent-applied</text>
      <text x="380" y="407" font-size="17" fill="#475362">wristband</text>

      <text x="540" y="384" font-size="17" font-weight="700" fill="#19202a">One machine</text>
      <text x="540" y="407" font-size="17" fill="#475362">station</text>

      <text x="220" y="496" font-size="17" font-weight="700" fill="#19202a">Setup</text>
      <text x="220" y="519" font-size="17" fill="#475362">burden</text>

      <text x="380" y="492" font-size="18" font-weight="700" fill="#f9f3e9">Daycare trip</text>
      <text x="380" y="516" font-size="18" fill="#f9f3e9">check-in delay</text>

      <text x="540" y="496" font-size="17" font-weight="700" fill="#19202a">Two machine</text>
      <text x="540" y="519" font-size="17" fill="#475362">stations</text>

      <text x="220" y="608" font-size="17" font-weight="700" fill="#19202a">Queue pressure</text>
      <text x="220" y="631" font-size="17" fill="#475362">departure</text>

      <text x="380" y="608" font-size="17" font-weight="700" fill="#19202a">Safety</text>
      <text x="380" y="631" font-size="17" fill="#475362">verification</text>

      <text x="540" y="608" font-size="17" font-weight="700" fill="#19202a">Fallback staff</text>
      <text x="540" y="631" font-size="17" fill="#475362">intervention</text>
    </g>
  </g>

  <g font-family="'Public Sans', Arial, sans-serif">
    <rect x="720" y="292" width="390" height="172" rx="24" fill="#fff" stroke="#d8c7b0" stroke-width="2"/>
    <text x="748" y="310" font-family="'IBM Plex Mono', monospace" font-size="17" fill="#255d67" letter-spacing="2">WHY THIS WORKED BETTER</text>
    <text x="748" y="348" font-size="22" font-weight="700" fill="#19202a">The blossom stayed tied</text>
    <text x="748" y="375" font-size="22" font-weight="700" fill="#19202a">to a workflow</text>
    <text x="748" y="406" font-size="18" fill="#475362">The team tracked delay, rework, and</text>
    <text x="748" y="431" font-size="18" fill="#475362">staff burden, not only which</text>
    <text x="748" y="456" font-size="18" fill="#475362">object looked neat.</text>

    <rect x="720" y="482" width="390" height="172" rx="24" fill="#fff" stroke="#d8c7b0" stroke-width="2"/>
    <text x="748" y="500" font-family="'IBM Plex Mono', monospace" font-size="17" fill="#aa5a32" letter-spacing="2">EARLY FILTERS</text>
    <text x="748" y="538" font-size="22" font-weight="700" fill="#19202a">Metrics narrowed</text>
    <text x="748" y="565" font-size="22" font-weight="700" fill="#19202a">the blossom sooner</text>
    <text x="748" y="596" font-size="18" fill="#475362">Staff time, completion risk, and</text>
    <text x="748" y="621" font-size="18" fill="#475362">fallback effort acted as rails</text>
    <text x="748" y="646" font-size="18" fill="#475362">before the team converged.</text>

    <rect x="720" y="650" width="390" height="118" rx="24" fill="#fff" stroke="#d8c7b0" stroke-width="2"/>
    <text x="748" y="668" font-family="'IBM Plex Mono', monospace" font-size="17" fill="#255d67" letter-spacing="2">TAKEAWAY</text>
    <text x="748" y="694" font-size="19" font-weight="700" fill="#19202a">The blossom became</text>
    <text x="748" y="716" font-size="19" font-weight="700" fill="#19202a">an argument map</text>
    <text x="748" y="740" font-size="13" fill="#475362">It explains why Praxis II converged responsibly.</text>
  </g>

  <g fill="none" stroke="#aa5a32" stroke-width="7" stroke-linecap="round">
    <path d="M610 392 C662 376 692 362 720 348"/>
    <path d="M610 504 C662 508 692 528 720 540"/>
  </g>
  <circle cx="610" cy="392" r="8" fill="#aa5a32"/>
  <circle cx="610" cy="504" r="8" fill="#aa5a32"/>
</svg>
