<svg xmlns="http://www.w3.org/2000/svg" viewBox="0 0 1200 760" role="img" aria-labelledby="title desc">
  <title id="title">Praxis II workflow summary</title>
  <desc id="desc">A simplified summary of the parent-led wristband workflow showing the bottleneck, the two-station decision, and the supporting dispenser prototype.</desc>

  <rect width="1200" height="760" fill="#f7f0e4"/>
  <rect x="42" y="42" width="1116" height="676" rx="34" fill="#fffaf2" stroke="#d8c7b0" stroke-width="3"/>

  <text x="82" y="100" font-family="'IBM Plex Mono', monospace" font-size="18" fill="#255d67" letter-spacing="3">PRAXIS II SOLUTION SUMMARY</text>
  <text x="82" y="152" font-family="'Fraunces', Georgia, serif" font-size="42" fill="#18202a">Parent-led wristband workflow</text>
  <text x="82" y="192" font-family="'Public Sans', Arial, sans-serif" font-size="20" fill="#475362">The final direction moved application into two parent stations while staff stayed with</text>
  <text x="82" y="220" font-family="'Public Sans', Arial, sans-serif" font-size="20" fill="#475362">attendance, verification, and exception handling.</text>

  <g font-family="'Public Sans', Arial, sans-serif">
    <rect x="82" y="286" width="272" height="252" rx="28" fill="#eef5fb" stroke="#cadeea" stroke-width="2"/>
    <text x="118" y="328" font-size="16" fill="#255d67" letter-spacing="2">1 REFRAME THE ISSUE</text>
    <text x="118" y="372" font-size="27" font-weight="700" fill="#19202a">Morning</text>
    <text x="118" y="404" font-size="27" font-weight="700" fill="#19202a">bottleneck</text>
    <text x="118" y="444" font-size="16" fill="#475362">Staff had to manage check-in,</text>
    <text x="118" y="472" font-size="16" fill="#475362">attendance, forms, and band use</text>
    <text x="118" y="500" font-size="16" fill="#475362">at the same time.</text>

    <rect x="438" y="252" width="324" height="324" rx="30" fill="#f3ebff" stroke="#d7c8ea" stroke-width="2"/>
    <text x="474" y="294" font-size="16" fill="#255d67" letter-spacing="2">2 CHOOSE THE FLOW</text>
    <text x="474" y="338" font-size="28" font-weight="700" fill="#19202a">Parent-led</text>
    <text x="474" y="370" font-size="28" font-weight="700" fill="#19202a">stations</text>
    <rect x="492" y="398" width="90" height="60" rx="18" fill="#ffffff" stroke="#d8c7b0" stroke-width="2"/>
    <rect x="618" y="398" width="90" height="60" rx="18" fill="#ffffff" stroke="#d8c7b0" stroke-width="2"/>
    <text x="537" y="434" text-anchor="middle" font-size="16" font-weight="700" fill="#6a50ff">Station 1</text>
    <text x="663" y="434" text-anchor="middle" font-size="16" font-weight="700" fill="#6a50ff">Station 2</text>
    <path d="M582 428 H618" fill="none" stroke="#6a50ff" stroke-width="4" stroke-linecap="round"/>
    <circle cx="600" cy="419" r="6" fill="#6a50ff"/>
    <text x="600" y="494" text-anchor="middle" font-size="18" font-weight="700" fill="#6a50ff">Parents apply bands</text>
    <text x="600" y="522" text-anchor="middle" font-size="18" font-weight="700" fill="#6a50ff">in parallel</text>
    <text x="600" y="554" text-anchor="middle" font-size="16" fill="#475362">Application leaves the main staff line.</text>

    <rect x="846" y="286" width="272" height="252" rx="28" fill="#eef8f1" stroke="#c6dece" stroke-width="2"/>
    <text x="874" y="328" font-size="16" fill="#255d67" letter-spacing="2">3 SUPPORT THE FLOW</text>
    <text x="874" y="372" font-size="27" font-weight="700" fill="#19202a">Sliding</text>
    <text x="874" y="404" font-size="27" font-weight="700" fill="#19202a">dispenser</text>
    <text x="874" y="438" font-size="16" fill="#475362">The tray releases one band</text>
    <text x="874" y="466" font-size="16" fill="#475362">so parents can pull it out</text>
    <text x="874" y="494" font-size="16" fill="#475362">and apply it without sorting</text>
    <text x="874" y="522" font-size="16" fill="#475362">through a full strip.</text>
  </g>

  <g fill="none" stroke="#43a1e8" stroke-width="5" stroke-linecap="round">
    <path d="M370 418 H406"/>
    <path d="M774 418 H810"/>
  </g>
  <g fill="#43a1e8">
    <path d="M406 406 L424 418 L406 430 Z"/>
    <path d="M810 406 L828 418 L810 430 Z"/>
  </g>

  <g font-family="'Public Sans', Arial, sans-serif">
    <rect x="118" y="610" width="964" height="66" rx="22" fill="#13212a"/>
    <text x="600" y="649" text-anchor="middle" font-size="20" fill="#f5efe4">Reading guide: the prototype matters because it supports the parent-led flow.</text>
  </g>
</svg>
