<svg xmlns="http://www.w3.org/2000/svg" viewBox="0 0 1200 820" role="img" aria-labelledby="title desc">
  <title id="title">Annotated Lotus Blossom for Praxis I</title>
  <desc id="desc">A boxed lotus blossom reconstruction showing how Praxis I widened into many backpack-strap directions before explicit criteria disciplined the comparison.</desc>
  <rect width="1200" height="820" fill="#f7f0e4"/>
  <rect x="40" y="40" width="1120" height="740" rx="36" fill="#fffaf2" stroke="#d9c7ae" stroke-width="3"/>

  <text x="72" y="104" font-family="'Public Sans', Arial, sans-serif" font-size="18" fill="#7e5a36" letter-spacing="3">PRAXIS I RECONSTRUCTION</text>
  <text x="72" y="146" font-family="'Fraunces', Georgia, serif" font-size="36" fill="#18202a">Lotus blossom that kept widening</text>
  <text x="72" y="186" font-family="'Fraunces', Georgia, serif" font-size="36" fill="#18202a">before the team had a filter</text>
  <text x="72" y="224" font-family="'Public Sans', Arial, sans-serif" font-size="21" fill="#475362">This version uses a proper lotus-blossom grid so the branches can be read clearly and</text>
  <text x="72" y="252" font-family="'Public Sans', Arial, sans-serif" font-size="21" fill="#475362">the annotations can sit beside it.</text>

  <g font-family="'Public Sans', Arial, sans-serif">
    <rect x="120" y="274" width="520" height="420" rx="30" fill="#f3e8d7" stroke="#d8c7b0" stroke-width="2"/>
    <text x="150" y="316" font-size="18" fill="#255d67" letter-spacing="2">LOTUS BLOSSOM</text>

    <g>
      <rect x="150" y="346" width="140" height="92" rx="20" fill="#fff" stroke="#cbb394" stroke-width="2"/>
      <rect x="310" y="346" width="140" height="92" rx="20" fill="#fff" stroke="#cbb394" stroke-width="2"/>
      <rect x="470" y="346" width="140" height="92" rx="20" fill="#fff" stroke="#cbb394" stroke-width="2"/>

      <rect x="150" y="458" width="140" height="92" rx="20" fill="#fff" stroke="#cbb394" stroke-width="2"/>
      <rect x="310" y="458" width="140" height="92" rx="20" fill="#255d67" stroke="#255d67" stroke-width="2"/>
      <rect x="470" y="458" width="140" height="92" rx="20" fill="#fff" stroke="#cbb394" stroke-width="2"/>

      <rect x="150" y="570" width="140" height="92" rx="20" fill="#fff" stroke="#cbb394" stroke-width="2"/>
      <rect x="310" y="570" width="140" height="92" rx="20" fill="#fff" stroke="#cbb394" stroke-width="2"/>
      <rect x="470" y="570" width="140" height="92" rx="20" fill="#fff" stroke="#cbb394" stroke-width="2"/>
    </g>

    <g text-anchor="middle">
      <text x="220" y="384" font-size="17" font-weight="700" fill="#19202a">Posture and</text>
      <text x="220" y="407" font-size="17" fill="#475362">load path</text>

      <text x="380" y="384" font-size="17" font-weight="700" fill="#19202a">Fastener</text>
      <text x="380" y="407" font-size="17" fill="#475362">ideas</text>

      <text x="540" y="384" font-size="17" font-weight="700" fill="#19202a">Shoulder</text>
      <text x="540" y="407" font-size="17" fill="#475362">comfort</text>

      <text x="220" y="496" font-size="17" font-weight="700" fill="#19202a">Extra strap</text>
      <text x="220" y="519" font-size="17" fill="#475362">control</text>

      <text x="380" y="492" font-size="18" font-weight="700" fill="#f9f3e9">Loose-strap</text>
      <text x="380" y="516" font-size="18" fill="#f9f3e9">snagging</text>

      <text x="540" y="496" font-size="17" font-weight="700" fill="#19202a">Adjustability</text>
      <text x="540" y="519" font-size="17" fill="#475362">tradeoff</text>

      <text x="220" y="608" font-size="17" font-weight="700" fill="#19202a">User motion</text>
      <text x="220" y="631" font-size="17" fill="#475362">and snags</text>

      <text x="380" y="608" font-size="17" font-weight="700" fill="#19202a">Manufacturing</text>
      <text x="380" y="631" font-size="17" fill="#475362">constraints</text>

      <text x="540" y="608" font-size="17" font-weight="700" fill="#19202a">Bag access</text>
      <text x="540" y="631" font-size="17" fill="#475362">daily use</text>
    </g>
  </g>

  <g font-family="'Public Sans', Arial, sans-serif">
    <rect x="720" y="292" width="390" height="172" rx="24" fill="#fff" stroke="#d8c7b0" stroke-width="2"/>
    <text x="748" y="310" font-family="'IBM Plex Mono', monospace" font-size="17" fill="#255d67" letter-spacing="2">WHAT WENT WRONG</text>
    <text x="748" y="348" font-size="22" font-weight="700" fill="#19202a">Divergence stayed</text>
    <text x="748" y="375" font-size="22" font-weight="700" fill="#19202a">open too long</text>
    <text x="748" y="406" font-size="18" fill="#475362">The blossom kept collecting</text>
    <text x="748" y="431" font-size="18" fill="#475362">legitimate branches, but it lacked</text>
    <text x="748" y="456" font-size="18" fill="#475362">a shared stopping rule.</text>

    <rect x="720" y="482" width="390" height="172" rx="24" fill="#fff" stroke="#d8c7b0" stroke-width="2"/>
    <text x="748" y="500" font-family="'IBM Plex Mono', monospace" font-size="17" fill="#aa5a32" letter-spacing="2">LATER FILTER</text>
    <text x="748" y="538" font-size="22" font-weight="700" fill="#19202a">Criteria finally</text>
    <text x="748" y="565" font-size="22" font-weight="700" fill="#19202a">disciplined the branches</text>
    <text x="748" y="596" font-size="18" fill="#475362">Snagging, comfort, adjustability, and</text>
    <text x="748" y="621" font-size="18" fill="#475362">manufacturability turned the list</text>
    <text x="748" y="646" font-size="18" fill="#475362">into a usable comparison.</text>

    <rect x="720" y="658" width="390" height="102" rx="24" fill="#fff" stroke="#d8c7b0" stroke-width="2"/>
    <text x="748" y="676" font-family="'IBM Plex Mono', monospace" font-size="17" fill="#255d67" letter-spacing="2">PROJECT LESSON</text>
    <text x="748" y="706" font-size="20" font-weight="700" fill="#19202a">Use the annotated version</text>
    <text x="748" y="730" font-size="16" fill="#475362">It shows where the team stalled</text>
    <text x="748" y="749" font-size="16" fill="#475362">and what reopened movement.</text>
  </g>

  <g fill="none" stroke="#aa5a32" stroke-width="4" stroke-linecap="round">
    <path d="M610 392 C662 376 692 362 720 348"/>
    <path d="M610 614 C660 600 692 584 720 570"/>
  </g>
  <circle cx="610" cy="392" r="6" fill="#aa5a32"/>
  <circle cx="610" cy="614" r="6" fill="#aa5a32"/>
</svg>
