<svg xmlns="http://www.w3.org/2000/svg" width="1400" height="920" viewBox="0 0 1400 920">
      <defs>
        <linearGradient id="bg" x1="0" x2="0" y1="0" y2="1">
          <stop offset="0%" stop-color="#fbf5eb" />
          <stop offset="100%" stop-color="#f2eadc" />
        </linearGradient>
        <filter id="shadow" x="-20%" y="-20%" width="140%" height="140%">
          <feDropShadow dx="0" dy="22" stdDeviation="24" flood-color="#674b2d" flood-opacity="0.12" />
        </filter>
      </defs>
      <rect width="1400" height="920" rx="36" fill="url(#bg)" />
      <rect x="24" y="24" width="1352" height="872" rx="30" fill="#fffdf8" filter="url(#shadow)" />
      <text x="120" y="76" font-size="46" fill="#221f1a" font-family="Iowan Old Style, Palatino Linotype, serif" font-weight="700">
        Machine Threshold
      </text>
      <text x="120" y="112" font-size="24" fill="#6f6559" font-family="Avenir Next, Segoe UI, sans-serif">
        Lower lines are better. The dashed line is the current process. Struggle rate moves left to right.
      </text>
      
        <line x1="120" y1="72" x2="164" y2="72" stroke="#2f6bb3" stroke-width="6" />
        <text x="176" y="79" font-size="22" fill="#6f6559" font-family="Avenir Next, Segoe UI, sans-serif">
          1 machine
        </text>
      
        <line x1="340" y1="72" x2="384" y2="72" stroke="#4d7a58" stroke-width="6" />
        <text x="396" y="79" font-size="22" fill="#6f6559" font-family="Avenir Next, Segoe UI, sans-serif">
          2 machines
        </text>
      
      <rect x="956" y="132" width="330" height="120" rx="22" fill="rgba(47, 107, 179, 0.06)" />
      
        <text x="980" y="186" font-size="21" fill="#6f6559" font-family="Avenir Next, Segoe UI, sans-serif">
          Machine base time: 12s
        </text>
      
        <text x="980" y="218" font-size="21" fill="#6f6559" font-family="Avenir Next, Segoe UI, sans-serif">
          Extra delay if struggling: 5 to 15 seconds
        </text>
      
        <text x="980" y="250" font-size="21" fill="#6f6559" font-family="Avenir Next, Segoe UI, sans-serif">
          1 machine crosses baseline near 79.5%
        </text>
      
      
      <line x1="120" y1="800" x2="1310" y2="800" stroke="rgba(34, 31, 26, 0.12)" />
      <text x="102" y="805" text-anchor="end" font-size="22" fill="#6f6559" font-family="Avenir Next, Segoe UI, sans-serif">
        25.6m
      </text>
    
      <line x1="120" y1="688.3333333333334" x2="1310" y2="688.3333333333334" stroke="rgba(34, 31, 26, 0.12)" />
      <text x="102" y="693.3333333333334" text-anchor="end" font-size="22" fill="#6f6559" font-family="Avenir Next, Segoe UI, sans-serif">
        28.1m
      </text>
    
      <line x1="120" y1="576.6666666666666" x2="1310" y2="576.6666666666666" stroke="rgba(34, 31, 26, 0.12)" />
      <text x="102" y="581.6666666666666" text-anchor="end" font-size="22" fill="#6f6559" font-family="Avenir Next, Segoe UI, sans-serif">
        30.6m
      </text>
    
      <line x1="120" y1="465" x2="1310" y2="465" stroke="rgba(34, 31, 26, 0.12)" />
      <text x="102" y="470" text-anchor="end" font-size="22" fill="#6f6559" font-family="Avenir Next, Segoe UI, sans-serif">
        33.1m
      </text>
    
      <line x1="120" y1="353.3333333333332" x2="1310" y2="353.3333333333332" stroke="rgba(34, 31, 26, 0.12)" />
      <text x="102" y="358.3333333333332" text-anchor="end" font-size="22" fill="#6f6559" font-family="Avenir Next, Segoe UI, sans-serif">
        35.6m
      </text>
    
      <line x1="120" y1="241.66666666666663" x2="1310" y2="241.66666666666663" stroke="rgba(34, 31, 26, 0.12)" />
      <text x="102" y="246.66666666666663" text-anchor="end" font-size="22" fill="#6f6559" font-family="Avenir Next, Segoe UI, sans-serif">
        38.1m
      </text>
    
      <line x1="120" y1="130" x2="1310" y2="130" stroke="rgba(34, 31, 26, 0.12)" />
      <text x="102" y="135" text-anchor="end" font-size="22" fill="#6f6559" font-family="Avenir Next, Segoe UI, sans-serif">
        40.6m
      </text>
    
      <line x1="120" y1="130" x2="120" y2="800" stroke="rgba(34, 31, 26, 0.12)" />
      <text x="120" y="838" text-anchor="middle" font-size="22" fill="#6f6559" font-family="Avenir Next, Segoe UI, sans-serif">
        0%
      </text>
    
      <line x1="358" y1="130" x2="358" y2="800" stroke="rgba(34, 31, 26, 0.12)" />
      <text x="358" y="838" text-anchor="middle" font-size="22" fill="#6f6559" font-family="Avenir Next, Segoe UI, sans-serif">
        20%
      </text>
    
      <line x1="596" y1="130" x2="596" y2="800" stroke="rgba(34, 31, 26, 0.12)" />
      <text x="596" y="838" text-anchor="middle" font-size="22" fill="#6f6559" font-family="Avenir Next, Segoe UI, sans-serif">
        40%
      </text>
    
      <line x1="834" y1="130" x2="834" y2="800" stroke="rgba(34, 31, 26, 0.12)" />
      <text x="834" y="838" text-anchor="middle" font-size="22" fill="#6f6559" font-family="Avenir Next, Segoe UI, sans-serif">
        60%
      </text>
    
      <line x1="1072" y1="130" x2="1072" y2="800" stroke="rgba(34, 31, 26, 0.12)" />
      <text x="1072" y="838" text-anchor="middle" font-size="22" fill="#6f6559" font-family="Avenir Next, Segoe UI, sans-serif">
        80%
      </text>
    
      <line x1="1310" y1="130" x2="1310" y2="800" stroke="rgba(34, 31, 26, 0.12)" />
      <text x="1310" y="838" text-anchor="middle" font-size="22" fill="#6f6559" font-family="Avenir Next, Segoe UI, sans-serif">
        100%
      </text>
    
      <line x1="120" y1="318.56980511148424" x2="1310" y2="318.56980511148424" stroke="#b54a36" stroke-width="4" stroke-dasharray="14 12" />
      <text x="1310" y="306.56980511148424" text-anchor="end" font-size="22" fill="#b54a36" font-family="Avenir Next, Segoe UI, sans-serif" font-weight="700">
        Current process: 36m 22s
      </text>
      <path d="M 120 723.2270555383482 L 179.5 711.3010277029724 L 239 697.9930461911746 L 298.5 683.750185175513 L 358 660.9466154890068 L 417.5 636.9389144544589 L 477 617.4534178386632 L 536.5 585.582905072759 L 596 559.6313452649854 L 655.5 530.8731640481399 L 715 497.4952160110415 L 774.5 470.45571458955476 L 834 438.90087413241463 L 893.5 408.4036094110391 L 953 379.63700171967366 L 1012.5 345.2141556062239 L 1072 315.88449853846015 L 1131.5 285.7315326154247 L 1191 253.48686202698286 L 1250.5 223.07869119729537 L 1310 194.83870967741927" fill="none" stroke="#2f6bb3" stroke-width="6" stroke-linejoin="round" stroke-linecap="round" /><path d="M 120 726.8823011501258 L 179.5 733.9784670128786 L 239 730.1765313606751 L 298.5 728.109129266767 L 358 731.2822077486404 L 417.5 729.5536918562502 L 477 735.1612903225806 L 536.5 726.401540410025 L 596 733.815027393965 L 655.5 725.4797939805427 L 715 722.0020902699795 L 774.5 731.7779934895152 L 834 728.1698088446478 L 893.5 726.1523011949204 L 953 724.4287988712545 L 1012.5 728.7826362903191 L 1072 721.770267804945 L 1131.5 725.3922865698054 L 1191 721.5181504829684 L 1250.5 719.3221303175284 L 1310 720.431632816129" fill="none" stroke="#4d7a58" stroke-width="6" stroke-linejoin="round" stroke-linecap="round" />
      <text x="700" y="886" text-anchor="middle" font-size="24" fill="#6f6559" font-family="Avenir Next, Segoe UI, sans-serif">
        Parents who struggle and need extra machine time
      </text>
      <text x="40" y="460" text-anchor="middle" font-size="24" fill="#6f6559" font-family="Avenir Next, Segoe UI, sans-serif" transform="rotate(-90 40 460)">
        Average total completion time
      </text>
    </svg>
