<svg xmlns="http://www.w3.org/2000/svg" width="3200" height="1320" viewBox="0 0 3200 1320">
  <defs>
    <linearGradient id="bg" x1="0" x2="1" y1="0" y2="1">
      <stop offset="0%" stop-color="#f8f5ef" />
      <stop offset="100%" stop-color="#f1ece4" />
    </linearGradient>
    <filter id="node-shadow" x="-20%" y="-20%" width="140%" height="140%">
      <feDropShadow dx="0" dy="10" stdDeviation="18" flood-color="#1f2937" flood-opacity="0.08" />
    </filter>
    <marker id="arrow-blue" markerUnits="userSpaceOnUse" markerWidth="14" markerHeight="14" refX="12" refY="7" orient="auto">
      <path d="M0,0 L14,7 L0,14 Z" fill="#6c8599" />
    </marker>
    <marker id="arrow-red" markerUnits="userSpaceOnUse" markerWidth="14" markerHeight="14" refX="12" refY="7" orient="auto">
      <path d="M0,0 L14,7 L0,14 Z" fill="#b57f75" />
    </marker>
    <marker id="arrow-green" markerUnits="userSpaceOnUse" markerWidth="14" markerHeight="14" refX="12" refY="7" orient="auto">
      <path d="M0,0 L14,7 L0,14 Z" fill="#7c9481" />
    </marker>
    <style>
      .font {
        font-family: "Avenir Next", "Helvetica Neue", Arial, sans-serif;
      }
      .primary {
        fill: #1e2833;
        font-size: 60px;
        font-weight: 700;
      }
      .decision {
        fill: #1e2833;
        font-size: 56px;
        font-weight: 700;
      }
      .secondary {
        fill: #2a2320;
        font-size: 42px;
        font-weight: 700;
      }
      .branch {
        fill: #5f7689;
        font-size: 34px;
        font-weight: 700;
      }
    </style>
  </defs>

  <rect width="3200" height="1320" fill="url(#bg)" />
  <rect x="52" y="52" width="3096" height="1216" rx="28" fill="#fcfbf8" />

  <g fill="none" stroke-linecap="round" stroke-linejoin="round">
    <path d="M580 660 H760" stroke="#6c8599" stroke-width="4" marker-end="url(#arrow-blue)" />
    <path d="M1140 660 H1270" stroke="#6c8599" stroke-width="4" marker-end="url(#arrow-blue)" />

    <path d="M1620 660 C1760 660 1760 430 1940 430 C2060 430 2120 520 2120 660" stroke="#6c8599" stroke-width="4" />
    <path d="M1620 660 C1760 660 1760 890 1940 890 C2060 890 2120 800 2120 660" stroke="#6c8599" stroke-width="4" />

    <path d="M2120 660 C2360 660 2550 648 2768 618" stroke="#6c8599" stroke-width="4" marker-end="url(#arrow-blue)" />
    <path d="M2120 660 C2140 740 2178 826 2200 885" stroke="#b57f75" stroke-width="4" marker-end="url(#arrow-red)" />
    <path d="M2520 885 H2570" stroke="#b57f75" stroke-width="4" marker-end="url(#arrow-red)" />
    <path d="M2890 885 C2960 885 2978 790 2948 744 C2926 712 2894 704 2772 704" stroke="#7c9481" stroke-width="4" marker-end="url(#arrow-green)" />
  </g>

  <circle cx="2120" cy="660" r="8" fill="#6c8599" />

  <g filter="url(#node-shadow)" class="font">
    <rect x="1825" y="314" width="260" height="72" rx="36" fill="#ffffff" stroke="#e3e8ec" stroke-width="1.2" />
    <text x="1955" y="360" class="branch" text-anchor="middle">No machine</text>

    <rect x="1818" y="938" width="206" height="72" rx="36" fill="#ffffff" stroke="#e3e8ec" stroke-width="1.2" />
    <text x="1921" y="984" class="branch" text-anchor="middle">Machine</text>
  </g>

  <g filter="url(#node-shadow)" class="font">
    <rect x="160" y="570" width="420" height="180" rx="14" fill="#ffffff" stroke="#e2e6ea" stroke-width="1.5" />
    <text x="370" y="642" class="primary" text-anchor="middle">Parent</text>
    <text x="370" y="708" class="primary" text-anchor="middle">Comes In</text>

    <rect x="760" y="570" width="380" height="180" rx="14" fill="#ffffff" stroke="#e2e6ea" stroke-width="1.5" />
    <text x="950" y="678" class="primary" text-anchor="middle">Station</text>
  </g>

  <g filter="url(#node-shadow)" class="font">
    <path d="M1450 470 L1620 660 L1450 850 L1280 660 Z" fill="#e8eef5" stroke="#d7e0e9" stroke-width="1.5" />
    <text x="1450" y="640" class="decision" text-anchor="middle">Machine</text>
    <text x="1450" y="702" class="decision" text-anchor="middle">Available?</text>
  </g>

  <g filter="url(#node-shadow)" class="font">
    <rect x="2780" y="530" width="360" height="220" rx="14" fill="#edf4ee" stroke="#d8e0d8" stroke-width="1.5" />
    <text x="2960" y="640" fill="#1e2833" font-size="56" font-weight="700" text-anchor="middle" dominant-baseline="middle">Attendance</text>

    <rect x="2200" y="825" width="320" height="120" rx="12" fill="#fbf1ef" stroke="#ebd9d4" stroke-width="1.5" />
    <text x="2360" y="874" class="secondary" text-anchor="middle">Failure /</text>
    <text x="2360" y="920" class="secondary" text-anchor="middle">Incompliant</text>

    <rect x="2570" y="825" width="320" height="120" rx="12" fill="#ffffff" stroke="#e3e6ea" stroke-width="1.5" />
    <text x="2730" y="900" class="secondary" text-anchor="middle">Staff Applies</text>
  </g>
</svg>
